<?xml version="1.0" encoding="utf-8"?>
<!-- Generator: Adobe Illustrator 25.0.1, SVG Export Plug-In . SVG Version: 6.00 Build 0)  -->
<svg version="1.1" id="Layer_1" xmlns="http://www.w3.org/2000/svg" xmlns:xlink="http://www.w3.org/1999/xlink" x="0px" y="0px"
	 viewBox="0 0 214.86 258.77" style="enable-background:new 0 0 214.86 258.77;" xml:space="preserve">
<style type="text/css">
	.st0{fill:#414042;}
	.st1{fill:#FFFFFF;}
	.st2{font-family:'AngelicChild';}
	.st3{font-size:211.2152px;}
</style>
<g>
	<path class="st0" d="M36.99,241.59c-4.34,0-8.05-1.54-11.12-4.6s-4.6-6.78-4.6-11.12c0-4.34,1.53-8.05,4.6-11.12
		c3.07-3.07,6.78-4.6,11.12-4.6s8.05,1.54,11.12,4.6c3.07,3.07,4.6,6.78,4.6,11.12c0,4.34-1.54,8.05-4.6,11.12
		C45.03,240.06,41.33,241.59,36.99,241.59z M41.75,230.63c1.32-1.32,1.98-2.91,1.98-4.76c0-1.86-0.66-3.44-1.98-4.76
		c-1.32-1.32-2.91-1.98-4.76-1.98s-3.44,0.66-4.76,1.98c-1.32,1.32-1.98,2.91-1.98,4.76c0,1.86,0.66,3.44,1.98,4.76
		c1.32,1.32,2.9,1.98,4.76,1.98S40.43,231.95,41.75,230.63z"/>
	<path class="st0" d="M71.19,241.59h-8.98v-22.46h-8.98v-8.98h26.95v8.98h-8.98V241.59z"/>
	<path class="st0" d="M91.41,210.14v31.45h-8.98v-31.45H91.41z"/>
	<path class="st0" d="M102.64,225.87v15.72h-8.98v-31.45h8.98l11.23,15.72v-15.72h8.98v31.45h-8.98L102.64,225.87z"/>
	<path class="st0" d="M140.83,241.59c-4.34,0-8.05-1.54-11.12-4.6s-4.6-6.78-4.6-11.12c0-4.34,1.54-8.05,4.6-11.12
		c3.07-3.07,6.78-4.6,11.12-4.6c4.34,0,8.05,1.54,11.12,4.6c3.07,3.07,4.6,6.78,4.6,11.12c0,4.34-1.54,8.05-4.6,11.12
		C148.87,240.06,145.17,241.59,140.83,241.59z M145.59,230.63c1.32-1.32,1.98-2.91,1.98-4.76c0-1.86-0.66-3.44-1.98-4.76
		c-1.32-1.32-2.91-1.98-4.76-1.98c-1.86,0-3.44,0.66-4.76,1.98c-1.32,1.32-1.98,2.91-1.98,4.76c0,1.86,0.66,3.44,1.98,4.76
		c1.32,1.32,2.91,1.98,4.76,1.98C142.68,232.61,144.27,231.95,145.59,230.63z"/>
	<path class="st0" d="M194.73,210.14v31.45h-8.98v-14.98l-4.49,14.98h-8.98l-4.49-14.92v14.92h-8.98v-31.45h11.23l6.74,17.97
		l6.74-17.97H194.73z"/>
</g>
<path class="st0" d="M195.65,196.25H20.14V20.73h116.79c32.44,0,58.73,26.29,58.73,58.73V196.25z"/>
<text transform="matrix(1 0 0 1 29.6436 178.3855)" class="st1 st2 st3">O</text>
</svg>
